<svg id="visual" viewBox="0 0 1920 1080" width="1920" height="1080" xmlns="http://www.w3.org/2000/svg" xmlns:xlink="http://www.w3.org/1999/xlink" version="1.1"><g stroke-width="1" stroke-linejoin="bevel"><path d="M1025 572L1114 613L1130 481Z" fill="#251f26" stroke="#251f26"></path><path d="M1130 481L986 446L1025 572Z" fill="#451d53" stroke="#451d53"></path><path d="M1114 613L1237 576L1130 481Z" fill="#251f26" stroke="#251f26"></path><path d="M1019 752L1147 691L1114 613Z" fill="#3b1f44" stroke="#3b1f44"></path><path d="M1114 613L1147 691L1237 576Z" fill="#2b202d" stroke="#2b202d"></path><path d="M986 446L914 480L1025 572Z" fill="#361f3c" stroke="#361f3c"></path><path d="M1025 572L1019 752L1114 613Z" fill="#501a63" stroke="#501a63"></path><path d="M1268 435L1140 359L1130 481Z" fill="#251f26" stroke="#251f26"></path><path d="M1130 481L1140 359L986 446Z" fill="#55176b" stroke="#55176b"></path><path d="M986 446L912 355L914 480Z" fill="#361f3c" stroke="#361f3c"></path><path d="M1237 576L1268 435L1130 481Z" fill="#55176b" stroke="#55176b"></path><path d="M870 587L938 689L1025 572Z" fill="#361f3c" stroke="#361f3c"></path><path d="M1140 359L1009 339L986 446Z" fill="#451d53" stroke="#451d53"></path><path d="M938 689L1019 752L1025 572Z" fill="#3b1f44" stroke="#3b1f44"></path><path d="M914 480L870 587L1025 572Z" fill="#3b1f44" stroke="#3b1f44"></path><path d="M1147 691L1291 678L1237 576Z" fill="#3b1f44" stroke="#3b1f44"></path><path d="M1237 576L1442 492L1268 435Z" fill="#451d53" stroke="#451d53"></path><path d="M1284 831L1291 678L1147 691Z" fill="#251f26" stroke="#251f26"></path><path d="M1009 339L912 355L986 446Z" fill="#3b1f44" stroke="#3b1f44"></path><path d="M788 508L809 633L870 587Z" fill="#3b1f44" stroke="#3b1f44"></path><path d="M788 508L870 587L914 480Z" fill="#1f1f1f" stroke="#1f1f1f"></path><path d="M870 587L809 633L938 689Z" fill="#4b1c5b" stroke="#4b1c5b"></path><path d="M888 801L1036 867L1019 752Z" fill="#3b1f44" stroke="#3b1f44"></path><path d="M776 379L788 508L914 480Z" fill="#361f3c" stroke="#361f3c"></path><path d="M1299 314L1259 284L1268 435Z" fill="#451d53" stroke="#451d53"></path><path d="M1268 435L1259 284L1140 359Z" fill="#401e4c" stroke="#401e4c"></path><path d="M1140 359L1069 220L1009 339Z" fill="#401e4c" stroke="#401e4c"></path><path d="M1009 339L882 245L912 355Z" fill="#302035" stroke="#302035"></path><path d="M1394 379L1299 314L1268 435Z" fill="#251f26" stroke="#251f26"></path><path d="M1291 678L1400 635L1237 576Z" fill="#251f26" stroke="#251f26"></path><path d="M1188 208L1069 220L1140 359Z" fill="#2b202d" stroke="#2b202d"></path><path d="M624 630L806 699L809 633Z" fill="#2b202d" stroke="#2b202d"></path><path d="M809 633L806 699L938 689Z" fill="#501a63" stroke="#501a63"></path><path d="M888 801L1019 752L938 689Z" fill="#451d53" stroke="#451d53"></path><path d="M1019 752L1172 881L1147 691Z" fill="#361f3c" stroke="#361f3c"></path><path d="M1291 678L1441 723L1400 635Z" fill="#251f26" stroke="#251f26"></path><path d="M806 699L888 801L938 689Z" fill="#401e4c" stroke="#401e4c"></path><path d="M1442 492L1394 379L1268 435Z" fill="#451d53" stroke="#451d53"></path><path d="M1300 108L1188 208L1259 284Z" fill="#2b202d" stroke="#2b202d"></path><path d="M1172 881L1284 831L1147 691Z" fill="#2b202d" stroke="#2b202d"></path><path d="M1036 867L1172 881L1019 752Z" fill="#401e4c" stroke="#401e4c"></path><path d="M1259 284L1188 208L1140 359Z" fill="#361f3c" stroke="#361f3c"></path><path d="M1378 228L1259 284L1299 314Z" fill="#302035" stroke="#302035"></path><path d="M1400 635L1442 492L1237 576Z" fill="#302035" stroke="#302035"></path><path d="M882 245L776 379L912 355Z" fill="#501a63" stroke="#501a63"></path><path d="M912 355L776 379L914 480Z" fill="#3b1f44" stroke="#3b1f44"></path><path d="M1069 220L882 245L1009 339Z" fill="#3b1f44" stroke="#3b1f44"></path><path d="M1292 948L1362 797L1284 831Z" fill="#3b1f44" stroke="#3b1f44"></path><path d="M1284 831L1362 797L1291 678Z" fill="#302035" stroke="#302035"></path><path d="M1400 635L1502 635L1442 492Z" fill="#302035" stroke="#302035"></path><path d="M888 801L1015 917L1036 867Z" fill="#1f1f1f" stroke="#1f1f1f"></path><path d="M1036 867L1131 931L1172 881Z" fill="#55176b" stroke="#55176b"></path><path d="M1015 917L1131 931L1036 867Z" fill="#501a63" stroke="#501a63"></path><path d="M1172 881L1292 948L1284 831Z" fill="#55176b" stroke="#55176b"></path><path d="M1362 797L1441 723L1291 678Z" fill="#1f1f1f" stroke="#1f1f1f"></path><path d="M1149 109L1021 152L1069 220Z" fill="#302035" stroke="#302035"></path><path d="M1069 220L1021 152L882 245Z" fill="#2b202d" stroke="#2b202d"></path><path d="M1441 723L1502 635L1400 635Z" fill="#302035" stroke="#302035"></path><path d="M1516 357L1378 228L1394 379Z" fill="#1f1f1f" stroke="#1f1f1f"></path><path d="M1394 379L1378 228L1299 314Z" fill="#2b202d" stroke="#2b202d"></path><path d="M1188 208L1149 109L1069 220Z" fill="#1f1f1f" stroke="#1f1f1f"></path><path d="M1516 357L1394 379L1442 492Z" fill="#3b1f44" stroke="#3b1f44"></path><path d="M1021 152L918 150L882 245Z" fill="#302035" stroke="#302035"></path><path d="M801 198L683 357L776 379Z" fill="#501a63" stroke="#501a63"></path><path d="M1502 635L1524 479L1442 492Z" fill="#4b1c5b" stroke="#4b1c5b"></path><path d="M1300 108L1149 109L1188 208Z" fill="#1f1f1f" stroke="#1f1f1f"></path><path d="M1021 152L918 0L918 150Z" fill="#3b1f44" stroke="#3b1f44"></path><path d="M1441 723L1505 704L1502 635Z" fill="#1f1f1f" stroke="#1f1f1f"></path><path d="M1502 635L1622 553L1524 479Z" fill="#361f3c" stroke="#361f3c"></path><path d="M1534 796L1505 704L1441 723Z" fill="#1f1f1f" stroke="#1f1f1f"></path><path d="M801 198L776 379L882 245Z" fill="#2b202d" stroke="#2b202d"></path><path d="M776 379L634 446L788 508Z" fill="#4b1c5b" stroke="#4b1c5b"></path><path d="M788 508L624 630L809 633Z" fill="#3b1f44" stroke="#3b1f44"></path><path d="M1131 931L1292 948L1172 881Z" fill="#451d53" stroke="#451d53"></path><path d="M1362 797L1534 796L1441 723Z" fill="#4b1c5b" stroke="#4b1c5b"></path><path d="M918 150L801 198L882 245Z" fill="#2b202d" stroke="#2b202d"></path><path d="M888 801L932 970L1015 917Z" fill="#361f3c" stroke="#361f3c"></path><path d="M984 1080L1178 1080L1131 931Z" fill="#451d53" stroke="#451d53"></path><path d="M1276 1080L1363 991L1292 948Z" fill="#4b1c5b" stroke="#4b1c5b"></path><path d="M758 864L932 970L888 801Z" fill="#501a63" stroke="#501a63"></path><path d="M1524 479L1516 357L1442 492Z" fill="#361f3c" stroke="#361f3c"></path><path d="M627 758L758 864L806 699Z" fill="#302035" stroke="#302035"></path><path d="M806 699L758 864L888 801Z" fill="#451d53" stroke="#451d53"></path><path d="M683 357L634 446L776 379Z" fill="#4b1c5b" stroke="#4b1c5b"></path><path d="M634 446L624 630L788 508Z" fill="#4b1c5b" stroke="#4b1c5b"></path><path d="M1397 92L1300 108L1378 228Z" fill="#2b202d" stroke="#2b202d"></path><path d="M1378 228L1300 108L1259 284Z" fill="#451d53" stroke="#451d53"></path><path d="M1514 959L1534 796L1362 797Z" fill="#401e4c" stroke="#401e4c"></path><path d="M1650 717L1622 553L1502 635Z" fill="#451d53" stroke="#451d53"></path><path d="M624 630L627 758L806 699Z" fill="#55176b" stroke="#55176b"></path><path d="M1178 1080L1292 948L1131 931Z" fill="#1f1f1f" stroke="#1f1f1f"></path><path d="M1292 948L1363 991L1362 797Z" fill="#361f3c" stroke="#361f3c"></path><path d="M801 198L647 261L683 357Z" fill="#251f26" stroke="#251f26"></path><path d="M683 357L468 313L634 446Z" fill="#2b202d" stroke="#2b202d"></path><path d="M656 87L647 261L801 198Z" fill="#1f1f1f" stroke="#1f1f1f"></path><path d="M1650 717L1502 635L1505 704Z" fill="#251f26" stroke="#251f26"></path><path d="M1684 382L1619 281L1516 357Z" fill="#3b1f44" stroke="#3b1f44"></path><path d="M495 836L627 819L627 758Z" fill="#501a63" stroke="#501a63"></path><path d="M627 758L627 819L758 864Z" fill="#55176b" stroke="#55176b"></path><path d="M758 864L786 994L932 970Z" fill="#361f3c" stroke="#361f3c"></path><path d="M984 1080L1131 931L1015 917Z" fill="#4b1c5b" stroke="#4b1c5b"></path><path d="M1529 118L1397 92L1378 228Z" fill="#302035" stroke="#302035"></path><path d="M1155 0L1034 0L1149 109Z" fill="#3b1f44" stroke="#3b1f44"></path><path d="M1574 229L1378 228L1516 357Z" fill="#2b202d" stroke="#2b202d"></path><path d="M650 926L786 994L758 864Z" fill="#501a63" stroke="#501a63"></path><path d="M932 970L984 1080L1015 917Z" fill="#55176b" stroke="#55176b"></path><path d="M1149 109L1034 0L1021 152Z" fill="#361f3c" stroke="#361f3c"></path><path d="M918 150L778 74L801 198Z" fill="#302035" stroke="#302035"></path><path d="M1155 0L1149 109L1300 108Z" fill="#55176b" stroke="#55176b"></path><path d="M1296 0L1155 0L1300 108Z" fill="#361f3c" stroke="#361f3c"></path><path d="M898 1080L984 1080L932 970Z" fill="#4b1c5b" stroke="#4b1c5b"></path><path d="M634 446L543 606L624 630Z" fill="#251f26" stroke="#251f26"></path><path d="M624 630L506 693L627 758Z" fill="#1f1f1f" stroke="#1f1f1f"></path><path d="M517 476L543 606L634 446Z" fill="#401e4c" stroke="#401e4c"></path><path d="M918 0L778 74L918 150Z" fill="#451d53" stroke="#451d53"></path><path d="M1178 1080L1276 1080L1292 948Z" fill="#2b202d" stroke="#2b202d"></path><path d="M1034 0L918 0L1021 152Z" fill="#361f3c" stroke="#361f3c"></path><path d="M786 994L898 1080L932 970Z" fill="#55176b" stroke="#55176b"></path><path d="M1619 281L1574 229L1516 357Z" fill="#302035" stroke="#302035"></path><path d="M468 313L517 476L634 446Z" fill="#1f1f1f" stroke="#1f1f1f"></path><path d="M1395 0L1296 0L1397 92Z" fill="#501a63" stroke="#501a63"></path><path d="M1397 92L1296 0L1300 108Z" fill="#451d53" stroke="#451d53"></path><path d="M1642 848L1650 717L1534 796Z" fill="#1f1f1f" stroke="#1f1f1f"></path><path d="M1534 796L1650 717L1505 704Z" fill="#4b1c5b" stroke="#4b1c5b"></path><path d="M1684 382L1516 357L1524 479Z" fill="#361f3c" stroke="#361f3c"></path><path d="M1514 959L1362 797L1363 991Z" fill="#501a63" stroke="#501a63"></path><path d="M627 819L650 926L758 864Z" fill="#251f26" stroke="#251f26"></path><path d="M786 994L778 1080L898 1080Z" fill="#451d53" stroke="#451d53"></path><path d="M495 836L650 926L627 819Z" fill="#501a63" stroke="#501a63"></path><path d="M1695 443L1524 479L1622 553Z" fill="#401e4c" stroke="#401e4c"></path><path d="M1392 1080L1514 959L1363 991Z" fill="#4b1c5b" stroke="#4b1c5b"></path><path d="M339 586L506 693L543 606Z" fill="#451d53" stroke="#451d53"></path><path d="M543 606L506 693L624 630Z" fill="#451d53" stroke="#451d53"></path><path d="M1574 229L1529 118L1378 228Z" fill="#501a63" stroke="#501a63"></path><path d="M1620 127L1529 118L1574 229Z" fill="#451d53" stroke="#451d53"></path><path d="M1790 474L1695 443L1622 553Z" fill="#4b1c5b" stroke="#4b1c5b"></path><path d="M1695 443L1684 382L1524 479Z" fill="#302035" stroke="#302035"></path><path d="M1619 281L1620 127L1574 229Z" fill="#501a63" stroke="#501a63"></path><path d="M1276 1080L1392 1080L1363 991Z" fill="#1f1f1f" stroke="#1f1f1f"></path><path d="M662 1080L778 1080L786 994Z" fill="#55176b" stroke="#55176b"></path><path d="M1542 0L1395 0L1397 92Z" fill="#3b1f44" stroke="#3b1f44"></path><path d="M1514 959L1642 848L1534 796Z" fill="#2b202d" stroke="#2b202d"></path><path d="M1650 717L1759 626L1622 553Z" fill="#401e4c" stroke="#401e4c"></path><path d="M1687 966L1642 848L1514 959Z" fill="#251f26" stroke="#251f26"></path><path d="M778 74L656 87L801 198Z" fill="#361f3c" stroke="#361f3c"></path><path d="M647 261L468 313L683 357Z" fill="#501a63" stroke="#501a63"></path><path d="M764 0L656 87L778 74Z" fill="#251f26" stroke="#251f26"></path><path d="M918 0L764 0L778 74Z" fill="#3b1f44" stroke="#3b1f44"></path><path d="M506 693L495 836L627 758Z" fill="#251f26" stroke="#251f26"></path><path d="M650 926L662 1080L786 994Z" fill="#361f3c" stroke="#361f3c"></path><path d="M400 764L495 836L506 693Z" fill="#451d53" stroke="#451d53"></path><path d="M516 206L468 313L647 261Z" fill="#451d53" stroke="#451d53"></path><path d="M339 586L400 764L506 693Z" fill="#501a63" stroke="#501a63"></path><path d="M656 87L516 206L647 261Z" fill="#2b202d" stroke="#2b202d"></path><path d="M1751 738L1759 626L1650 717Z" fill="#251f26" stroke="#251f26"></path><path d="M1695 443L1790 474L1684 382Z" fill="#251f26" stroke="#251f26"></path><path d="M1797 325L1619 281L1684 382Z" fill="#251f26" stroke="#251f26"></path><path d="M1802 277L1620 127L1619 281Z" fill="#451d53" stroke="#451d53"></path><path d="M1529 118L1542 0L1397 92Z" fill="#361f3c" stroke="#361f3c"></path><path d="M1642 848L1751 738L1650 717Z" fill="#251f26" stroke="#251f26"></path><path d="M535 1080L662 1080L650 926Z" fill="#401e4c" stroke="#401e4c"></path><path d="M1920 589L1790 474L1759 626Z" fill="#401e4c" stroke="#401e4c"></path><path d="M1759 626L1790 474L1622 553Z" fill="#55176b" stroke="#55176b"></path><path d="M1620 127L1542 0L1529 118Z" fill="#4b1c5b" stroke="#4b1c5b"></path><path d="M1392 1080L1557 1080L1514 959Z" fill="#501a63" stroke="#501a63"></path><path d="M1642 848L1754 838L1751 738Z" fill="#1f1f1f" stroke="#1f1f1f"></path><path d="M598 0L500 149L656 87Z" fill="#401e4c" stroke="#401e4c"></path><path d="M656 87L500 149L516 206Z" fill="#2b202d" stroke="#2b202d"></path><path d="M516 206L423 203L468 313Z" fill="#251f26" stroke="#251f26"></path><path d="M418 870L486 939L495 836Z" fill="#1f1f1f" stroke="#1f1f1f"></path><path d="M495 836L486 939L650 926Z" fill="#55176b" stroke="#55176b"></path><path d="M1687 966L1754 838L1642 848Z" fill="#501a63" stroke="#501a63"></path><path d="M1920 704L1920 589L1759 626Z" fill="#3b1f44" stroke="#3b1f44"></path><path d="M339 586L543 606L517 476Z" fill="#3b1f44" stroke="#3b1f44"></path><path d="M1629 1080L1687 966L1514 959Z" fill="#251f26" stroke="#251f26"></path><path d="M764 0L598 0L656 87Z" fill="#4b1c5b" stroke="#4b1c5b"></path><path d="M1790 474L1797 325L1684 382Z" fill="#2b202d" stroke="#2b202d"></path><path d="M1620 127L1653 0L1542 0Z" fill="#2b202d" stroke="#2b202d"></path><path d="M423 203L369 396L468 313Z" fill="#302035" stroke="#302035"></path><path d="M468 313L369 396L517 476Z" fill="#501a63" stroke="#501a63"></path><path d="M400 764L418 870L495 836Z" fill="#4b1c5b" stroke="#4b1c5b"></path><path d="M358 115L423 203L500 149Z" fill="#401e4c" stroke="#401e4c"></path><path d="M500 149L423 203L516 206Z" fill="#302035" stroke="#302035"></path><path d="M337 490L339 586L517 476Z" fill="#4b1c5b" stroke="#4b1c5b"></path><path d="M281 972L373 967L418 870Z" fill="#361f3c" stroke="#361f3c"></path><path d="M286 399L337 490L369 396Z" fill="#361f3c" stroke="#361f3c"></path><path d="M369 396L337 490L517 476Z" fill="#302035" stroke="#302035"></path><path d="M1920 325L1802 277L1797 325Z" fill="#361f3c" stroke="#361f3c"></path><path d="M1797 325L1802 277L1619 281Z" fill="#1f1f1f" stroke="#1f1f1f"></path><path d="M1557 1080L1629 1080L1514 959Z" fill="#361f3c" stroke="#361f3c"></path><path d="M1920 704L1751 738L1920 860Z" fill="#501a63" stroke="#501a63"></path><path d="M387 1080L535 1080L486 939Z" fill="#4b1c5b" stroke="#4b1c5b"></path><path d="M486 939L535 1080L650 926Z" fill="#1f1f1f" stroke="#1f1f1f"></path><path d="M1802 76L1653 0L1620 127Z" fill="#361f3c" stroke="#361f3c"></path><path d="M598 0L524 0L500 149Z" fill="#4b1c5b" stroke="#4b1c5b"></path><path d="M242 249L286 399L369 396Z" fill="#2b202d" stroke="#2b202d"></path><path d="M337 490L269 555L339 586Z" fill="#251f26" stroke="#251f26"></path><path d="M339 586L258 694L400 764Z" fill="#251f26" stroke="#251f26"></path><path d="M242 249L369 396L423 203Z" fill="#1f1f1f" stroke="#1f1f1f"></path><path d="M238 485L269 555L337 490Z" fill="#451d53" stroke="#451d53"></path><path d="M1920 704L1759 626L1751 738Z" fill="#361f3c" stroke="#361f3c"></path><path d="M1790 474L1920 325L1797 325Z" fill="#302035" stroke="#302035"></path><path d="M1751 738L1754 838L1920 860Z" fill="#55176b" stroke="#55176b"></path><path d="M1920 589L1920 490L1790 474Z" fill="#501a63" stroke="#501a63"></path><path d="M1802 277L1802 76L1620 127Z" fill="#251f26" stroke="#251f26"></path><path d="M281 972L418 870L223 846Z" fill="#1f1f1f" stroke="#1f1f1f"></path><path d="M418 870L373 967L486 939Z" fill="#401e4c" stroke="#401e4c"></path><path d="M1834 975L1754 838L1687 966Z" fill="#451d53" stroke="#451d53"></path><path d="M269 555L258 694L339 586Z" fill="#2b202d" stroke="#2b202d"></path><path d="M1920 163L1802 76L1802 277Z" fill="#1f1f1f" stroke="#1f1f1f"></path><path d="M398 0L358 115L500 149Z" fill="#1f1f1f" stroke="#1f1f1f"></path><path d="M168 491L238 485L166 325Z" fill="#251f26" stroke="#251f26"></path><path d="M286 399L238 485L337 490Z" fill="#361f3c" stroke="#361f3c"></path><path d="M269 555L173 565L258 694Z" fill="#55176b" stroke="#55176b"></path><path d="M1920 490L1920 325L1790 474Z" fill="#251f26" stroke="#251f26"></path><path d="M1817 1080L1834 975L1687 966Z" fill="#451d53" stroke="#451d53"></path><path d="M524 0L398 0L500 149Z" fill="#4b1c5b" stroke="#4b1c5b"></path><path d="M281 972L387 1080L373 967Z" fill="#4b1c5b" stroke="#4b1c5b"></path><path d="M373 967L387 1080L486 939Z" fill="#55176b" stroke="#55176b"></path><path d="M1834 975L1920 860L1754 838Z" fill="#451d53" stroke="#451d53"></path><path d="M1920 325L1920 198L1802 277Z" fill="#2b202d" stroke="#2b202d"></path><path d="M358 115L242 249L423 203Z" fill="#451d53" stroke="#451d53"></path><path d="M288 111L242 249L358 115Z" fill="#361f3c" stroke="#361f3c"></path><path d="M1629 1080L1817 1080L1687 966Z" fill="#451d53" stroke="#451d53"></path><path d="M1834 975L1920 919L1920 860Z" fill="#302035" stroke="#302035"></path><path d="M1920 1080L1920 919L1834 975Z" fill="#2b202d" stroke="#2b202d"></path><path d="M1920 198L1920 163L1802 277Z" fill="#251f26" stroke="#251f26"></path><path d="M1920 0L1824 0L1802 76Z" fill="#451d53" stroke="#451d53"></path><path d="M1802 76L1824 0L1653 0Z" fill="#302035" stroke="#302035"></path><path d="M268 0L288 111L358 115Z" fill="#302035" stroke="#302035"></path><path d="M223 846L418 870L400 764Z" fill="#2b202d" stroke="#2b202d"></path><path d="M223 846L400 764L258 694Z" fill="#55176b" stroke="#55176b"></path><path d="M168 491L173 565L238 485Z" fill="#251f26" stroke="#251f26"></path><path d="M238 485L173 565L269 555Z" fill="#401e4c" stroke="#401e4c"></path><path d="M164 684L223 846L258 694Z" fill="#2b202d" stroke="#2b202d"></path><path d="M166 325L238 485L286 399Z" fill="#302035" stroke="#302035"></path><path d="M0 613L164 684L173 565Z" fill="#501a63" stroke="#501a63"></path><path d="M173 565L164 684L258 694Z" fill="#401e4c" stroke="#401e4c"></path><path d="M242 249L166 325L286 399Z" fill="#55176b" stroke="#55176b"></path><path d="M0 762L134 833L164 684Z" fill="#3b1f44" stroke="#3b1f44"></path><path d="M152 237L166 325L242 249Z" fill="#55176b" stroke="#55176b"></path><path d="M1817 1080L1920 1080L1834 975Z" fill="#55176b" stroke="#55176b"></path><path d="M398 0L268 0L358 115Z" fill="#2b202d" stroke="#2b202d"></path><path d="M288 111L152 237L242 249Z" fill="#451d53" stroke="#451d53"></path><path d="M118 119L152 237L288 111Z" fill="#401e4c" stroke="#401e4c"></path><path d="M0 453L0 613L168 491Z" fill="#361f3c" stroke="#361f3c"></path><path d="M1920 163L1920 0L1802 76Z" fill="#361f3c" stroke="#361f3c"></path><path d="M0 613L173 565L168 491Z" fill="#451d53" stroke="#451d53"></path><path d="M164 684L134 833L223 846Z" fill="#401e4c" stroke="#401e4c"></path><path d="M223 846L138 991L281 972Z" fill="#3b1f44" stroke="#3b1f44"></path><path d="M281 972L237 1080L387 1080Z" fill="#401e4c" stroke="#401e4c"></path><path d="M138 991L237 1080L281 972Z" fill="#501a63" stroke="#501a63"></path><path d="M134 833L138 991L223 846Z" fill="#302035" stroke="#302035"></path><path d="M174 0L118 119L288 111Z" fill="#251f26" stroke="#251f26"></path><path d="M0 453L168 491L0 367Z" fill="#501a63" stroke="#501a63"></path><path d="M268 0L174 0L288 111Z" fill="#3b1f44" stroke="#3b1f44"></path><path d="M138 991L164 1080L237 1080Z" fill="#361f3c" stroke="#361f3c"></path><path d="M168 491L166 325L0 367Z" fill="#1f1f1f" stroke="#1f1f1f"></path><path d="M134 833L0 844L138 991Z" fill="#451d53" stroke="#451d53"></path><path d="M138 991L0 1080L164 1080Z" fill="#55176b" stroke="#55176b"></path><path d="M0 367L166 325L0 258Z" fill="#451d53" stroke="#451d53"></path><path d="M0 258L152 237L0 151Z" fill="#501a63" stroke="#501a63"></path><path d="M0 258L166 325L152 237Z" fill="#1f1f1f" stroke="#1f1f1f"></path><path d="M0 613L0 762L164 684Z" fill="#4b1c5b" stroke="#4b1c5b"></path><path d="M0 151L152 237L118 119Z" fill="#251f26" stroke="#251f26"></path><path d="M0 762L0 844L134 833Z" fill="#401e4c" stroke="#401e4c"></path><path d="M0 0L0 151L118 119Z" fill="#1f1f1f" stroke="#1f1f1f"></path><path d="M0 844L0 996L138 991Z" fill="#361f3c" stroke="#361f3c"></path><path d="M0 996L0 1080L138 991Z" fill="#361f3c" stroke="#361f3c"></path><path d="M174 0L0 0L118 119Z" fill="#302035" stroke="#302035"></path></g></svg>