<svg id="visual" viewBox="0 0 1920 1080" width="1920" height="1080" xmlns="http://www.w3.org/2000/svg" xmlns:xlink="http://www.w3.org/1999/xlink" version="1.1"><rect x="0" y="0" width="1920" height="1080" fill="#1f1f1f"></rect><g transform="translate(1947.6323877228729 6.845937571835549)"><path d="M276.9 -334.7C342.6 -274.9 368.2 -172.2 370.9 -77.2C373.5 17.7 353 104.8 305.8 167.2C258.6 229.5 184.7 267 102 310C19.3 353 -72.3 401.6 -132.5 374.9C-192.6 348.2 -221.5 246.4 -282.8 155.7C-344.1 65.1 -438 -14.3 -425.2 -72.9C-412.4 -131.5 -293 -169.1 -204.3 -224.9C-115.7 -280.6 -57.9 -354.3 23.9 -382.7C105.6 -411.2 211.3 -394.4 276.9 -334.7" fill="#c044ec"></path></g></svg>