<svg id="visual" viewBox="0 0 1920 1080" width="1920" height="1080" xmlns="http://www.w3.org/2000/svg" xmlns:xlink="http://www.w3.org/1999/xlink" version="1.1"><rect x="0" y="0" width="1920" height="1080" fill="#1f1f1f"></rect><defs><linearGradient id="grad1_0" x1="43.8%" y1="100%" x2="100%" y2="0%"><stop offset="14.444444444444446%" stop-color="#1f1f1f" stop-opacity="1"></stop><stop offset="85.55555555555554%" stop-color="#1f1f1f" stop-opacity="1"></stop></linearGradient></defs><defs><linearGradient id="grad2_0" x1="0%" y1="100%" x2="56.3%" y2="0%"><stop offset="14.444444444444446%" stop-color="#1f1f1f" stop-opacity="1"></stop><stop offset="85.55555555555554%" stop-color="#1f1f1f" stop-opacity="1"></stop></linearGradient></defs><g transform="translate(1920, 1080)"><path d="M-432 0C-433.3 -49.1 -434.6 -98.2 -410.9 -133.5C-387.1 -168.8 -338.3 -190.3 -310.7 -225.7C-283 -261.1 -276.6 -310.5 -250.4 -344.6C-224.2 -378.8 -178.2 -397.9 -133.2 -409.9C-88.2 -421.9 -44.1 -427 0 -432L0 0Z" fill="#c044ec"></path></g><g transform="translate(0, 0)"><path d="M432 0C425 43 418.1 86.1 408 132.6C397.9 179.1 384.7 229 349.5 253.9C314.3 278.9 257 278.9 218.7 301C180.3 323.1 160.9 367.3 127.6 392.8C94.3 418.3 47.2 425.2 0 432L0 0Z" fill="#c044ec"></path></g></svg>